<svg width="49" height="71" viewBox="0 0 49 71" fill="none" xmlns="http://www.w3.org/2000/svg">
<path d="M34.8914 55.994C34.9759 56.8515 34.3845 57.5374 33.6241 57.6232C33.2862 57.6232 33.0328 57.7089 32.6948 57.7089C32.6103 57.7089 32.6103 57.7089 32.5259 57.7089C31.681 57.7089 31.0897 57.0229 31.0897 56.1655C31.0897 55.3937 31.681 54.7935 32.4414 54.7077C32.7793 54.7077 33.0328 54.622 33.2862 54.622C34.0466 54.622 34.8069 55.2222 34.8914 55.994ZM48.831 50.3345C48.831 51.3635 48.4086 52.3068 47.6483 52.9928C48.4086 53.6787 48.831 54.622 48.831 55.651V63.1969C48.831 68.599 36.1586 71 24.4155 71C12.6724 71 0 68.5133 0 63.1969V62.0821C0 61.2246 0.675865 60.5386 1.52069 60.5386C2.36552 60.5386 3.04138 61.2246 3.04138 62.0821V63.1969C3.04138 64.6546 10.3069 67.9988 24.5 67.9988C38.6931 67.9988 45.9586 64.6546 45.9586 63.1969V59.6812C41.5655 62.2536 32.7793 63.5399 24.5 63.5399C12.7569 63.5399 0.0844847 61.0531 0.0844847 55.7367C0.0844847 54.7077 0.506897 53.7645 1.26724 53.0785C0.506897 52.3925 0.0844847 51.4493 0.0844847 50.4203V42.8744C0.0844847 40.1304 3.29483 37.9867 9.54655 36.529C10.3069 36.3575 11.1517 36.872 11.3207 37.6437C11.4897 38.4155 10.9828 39.2729 10.2224 39.4444C4.81552 40.6449 3.12586 42.2742 3.12586 42.8744C3.12586 44.3321 10.3914 47.6763 24.5845 47.6763C38.7776 47.6763 46.0431 44.3321 46.0431 42.8744C46.0431 41.4167 38.7776 38.0725 24.5845 38.0725C21.6276 38.0725 18.7552 38.244 15.7983 38.587C14.9534 38.6727 14.2776 38.0725 14.1931 37.3007C14.1086 36.4432 14.7 35.7572 15.4603 35.6715C18.5017 35.3285 21.5431 35.157 24.5845 35.157C36.3276 35.157 49 37.6437 49 42.9601V50.3345H48.831ZM45.8741 55.651C45.8741 55.4795 45.7052 55.1365 45.1138 54.7077C43.0017 55.651 40.8897 56.337 38.6086 56.7657C38.5241 56.7657 38.4397 56.7657 38.2707 56.7657C37.4259 56.7657 36.75 56.0797 36.75 55.308C36.75 54.622 37.2569 54.0217 37.9328 53.8502C40.1293 53.4215 42.2414 52.7355 44.269 51.7065C44.3535 51.6208 44.4379 51.6208 44.5224 51.535C45.3672 51.0205 45.7897 50.506 45.7897 50.2488V46.7331C41.3966 49.3056 32.6103 50.5918 24.331 50.5918C16.0517 50.5918 7.26552 49.3913 2.87242 46.7331V50.2488C2.9569 51.7923 10.2224 55.2222 24.4155 55.2222C25.3448 55.2222 26.2741 55.2222 27.2035 55.1365C28.0483 55.1365 28.7241 55.7367 28.7241 56.5942C28.7241 57.4517 28.1328 58.1377 27.2879 58.1377C26.3586 58.1377 25.3448 58.2234 24.4155 58.2234C16.5586 58.2234 8.27931 57.1087 3.71724 54.7935C3.12586 55.2222 2.9569 55.5652 2.9569 55.7367C2.9569 57.1944 10.2224 60.5386 24.4155 60.5386C38.6086 60.5386 45.8741 57.1087 45.8741 55.651ZM24.4155 32.756C33.2862 32.756 40.5517 25.4674 40.5517 16.378C40.5517 7.28865 33.3707 0 24.4155 0C22.8948 0 21.3741 0.171497 19.9379 0.600241C19.1776 0.857487 18.6707 1.62923 18.9241 2.48671C19.1776 3.25845 19.9379 3.77295 20.7828 3.5157C27.7948 1.45773 35.0603 5.57367 37.0879 12.6908C39.1155 19.808 35.0603 27.1824 28.0483 29.2403C21.0362 31.2983 13.7707 27.0966 11.7431 19.9795C10.7293 16.2923 11.2362 12.3478 13.3483 9.08937C13.7707 8.40338 13.6017 7.46014 12.9259 7.0314C12.25 6.60266 11.3207 6.77415 10.8983 7.46014C6.08276 15.0918 8.27931 25.2101 15.7983 30.0978C18.3328 31.8128 21.2897 32.6703 24.4155 32.756ZM15.2914 6.17391C15.6293 6.17391 15.9672 6.08816 16.2207 5.83092C16.3897 5.65942 16.5586 5.57367 16.8121 5.40217C17.4879 4.97343 17.6569 4.03019 17.2345 3.3442C16.8121 2.65821 15.8828 2.48671 15.2069 2.91546C15.2069 2.91546 15.2069 2.91546 15.1224 2.91546C14.869 3.08696 14.6155 3.25845 14.4466 3.42995C13.7707 3.94444 13.6862 4.88768 14.1931 5.57367C14.4466 6.00242 14.869 6.17391 15.2914 6.17391ZM25.0914 14.8345H24.4155H23.7397C23.1483 14.8345 22.6414 14.32 22.6414 13.7198V12.3478C22.6414 11.7476 23.1483 11.2331 23.7397 11.2331H27.7103C28.5552 11.2331 29.231 10.5471 29.231 9.68961C29.231 8.83213 28.5552 8.14613 27.7103 8.14613H25.9362V7.63164C25.9362 6.77415 25.2603 6.08816 24.4155 6.08816C23.5707 6.08816 22.8948 6.77415 22.8948 7.63164V8.23188C21.0362 8.57488 19.6 10.2899 19.6 12.2621V13.6341C19.6 15.9493 21.4586 17.75 23.6552 17.75H24.4155H25.0914C25.6828 17.75 26.1897 18.2645 26.1897 18.8647V20.2367C26.1897 20.837 25.6828 21.3514 25.0914 21.3514H21.1207C20.2759 21.3514 19.6 22.0374 19.6 22.8949C19.6 23.7524 20.2759 24.4384 21.1207 24.4384H22.8948V24.9529C22.8948 25.8104 23.5707 26.4964 24.4155 26.4964C25.2603 26.4964 25.9362 25.8104 25.9362 24.9529V24.3527C27.7948 24.0097 29.231 22.2947 29.231 20.3225V18.9505C29.1466 16.721 27.3724 14.8345 25.0914 14.8345Z" fill="url(#paint0_linear)"/>
<defs>
<linearGradient id="paint0_linear" x1="48.1256" y1="65.3732" x2="0.0687357" y2="18.0267" gradientUnits="userSpaceOnUse">
<stop stop-color="#20A9A1"/>
<stop offset="1" stop-color="#DEFC68"/>
</linearGradient>
</defs>
</svg>
