<svg width="20" height="23" viewBox="0 0 20 23" fill="none" xmlns="http://www.w3.org/2000/svg">
<path d="M19.7558 21.2109L14.0683 14.9629C15.17 13.468 15.8333 11.5684 15.8333 9.49952C15.8333 4.7044 12.2816 0.802734 7.91664 0.802734C3.55164 0.802734 0 4.70435 0 9.49948C0 14.2946 3.55168 18.1963 7.91668 18.1963C9.8 18.1963 11.5292 17.4676 12.89 16.2573L18.5775 22.5053C18.74 22.6838 18.9533 22.7735 19.1667 22.7735C19.38 22.7735 19.5934 22.6838 19.7559 22.5053C20.0817 22.1474 20.0817 21.5688 19.7558 21.2109ZM7.91668 16.3654C4.47 16.3654 1.66668 13.2858 1.66668 9.49948C1.66668 5.71316 4.47 2.63361 7.91668 2.63361C11.3634 2.63361 14.1667 5.71316 14.1667 9.49948C14.1667 13.2858 11.3633 16.3654 7.91668 16.3654Z" fill="#878787"/>
</svg>
